<?xml version="1.0" encoding="utf-8"?>
<!-- Generator: Adobe Illustrator 15.1.0, SVG Export Plug-In . SVG Version: 6.00 Build 0)  -->
<!DOCTYPE svg PUBLIC "-//W3C//DTD SVG 1.1//EN" "http://www.w3.org/Graphics/SVG/1.1/DTD/svg11.dtd">
<svg version="1.1" id="Ebene_1" xmlns="http://www.w3.org/2000/svg" xmlns:xlink="http://www.w3.org/1999/xlink" x="0px" y="0px"
	 width="226.771px" height="56.64px" viewBox="0 0 226.771 56.64" enable-background="new 0 0 226.771 56.64" xml:space="preserve">
<line fill="none" stroke="#000000" stroke-miterlimit="10" x1="106.274" y1="5.343" x2="106.274" y2="49.297"/>
<g id="layer3" sodipodi:insensitive="true" inkscape:groupmode="layer" inkscape:label="Logo">
	<g id="g4553">
		<path id="path4669" inkscape:connector-curvature="0" fill="#C94FA0" d="M73.949,31.729l-7.598,13.16h-5.09l2.544,4.408h0.001
			h20.287L73.949,31.729z"/>
		<path id="path4663" inkscape:connector-curvature="0" fill="#B03686" d="M38.427,5.342L25.739,27.32h6.709v-6.999h5.76
			c3.68,0,5.96,1.879,5.96,4.979c0,0.748-0.141,1.423-0.398,2.021h2.257l2.544-4.408L38.427,5.342z M35.048,22.519v4.801h5.665
			c0.551-0.479,0.835-1.163,0.835-2.021c0-1.76-1.18-2.78-3.46-2.78H35.048z"/>
		<path id="path4665" inkscape:connector-curvature="0" fill="#621E4B" d="M48.572,31.729L38.428,49.297h20.288L48.572,31.729z"/>
		<path id="path4671" inkscape:connector-curvature="0" fill="#C94FA0" d="M38.429,5.343l10.143,17.569l7.6-13.162h5.089
			l-2.544-4.407H38.429z"/>
		<path id="path4673" inkscape:connector-curvature="0" fill="#892A69" d="M25.739,27.32l12.688,21.977l10.144-17.57l-2.544-4.407
			H43.77c-0.472,1.094-1.351,1.922-2.581,2.401l3.22,4.6h-2.801l-2.859-4.1c-0.18,0.02-0.36,0.02-0.541,0.02h-3.16v4.08h-2.6v-7.001
			L25.739,27.32z M35.048,27.32v0.78h3.04c1.169,0,2.045-0.276,2.625-0.78H35.048z"/>
		<path id="path4667" inkscape:connector-curvature="0" fill="#892A69" d="M84.092,5.342L73.948,22.912l2.546,4.408h2.348v-6.999
			h10.219v2.18h-7.619v3.64h6.76v1.18h8.58L84.092,5.342z"/>
		<path id="path4675" inkscape:connector-curvature="0" fill="#B03686" d="M76.494,27.32l-2.546,4.407l10.144,17.57L96.781,27.32
			h-8.58v0.961h-6.76v3.859h7.9v2.18h-10.5v-7H76.494z"/>
		<path id="path5607" inkscape:connector-curvature="0" fill="#621E4B" d="M63.806,5.343l10.143,17.569L84.093,5.343H63.806z"/>
		<g id="text5362">
			<path id="path4540" inkscape:connector-curvature="0" fill="#621E4B" d="M61.25,34.439c3.58,0,5.22-1.76,5.22-3.82
				c0-5.099-8.62-2.779-8.62-6.62c0-1.399,1.14-2.54,3.7-2.54c1.24,0,2.64,0.381,3.84,1.16l0.5-1.18c-1.12-0.78-2.76-1.24-4.34-1.24
				c-3.56,0-5.16,1.78-5.16,3.84c0,5.181,8.62,2.82,8.62,6.66c0,1.381-1.14,2.48-3.76,2.48c-1.84,0-3.62-0.721-4.62-1.699
				l-0.58,1.139C57.09,33.699,59.15,34.439,61.25,34.439z"/>
		</g>
		<path id="path4551" inkscape:connector-curvature="0" fill="#621E4B" d="M63.806,5.343l10.143,17.569L84.093,5.343H63.806z"/>
		<path id="path4553" inkscape:connector-curvature="0" fill="#892A69" d="M84.092,5.342L73.948,22.912l2.546,4.408h2.348v-6.999
			h10.219v2.18h-7.619v3.64h6.76v1.18h8.58L84.092,5.342z"/>
		<path id="path4555" inkscape:connector-curvature="0" fill="#B03686" d="M76.494,27.32l-2.546,4.407l10.144,17.57L96.781,27.32
			h-8.58v0.961h-6.76v3.859h7.9v2.18h-10.5v-7H76.494z"/>
		<path id="path4557" inkscape:connector-curvature="0" fill="#C94FA0" d="M73.949,31.729l-7.598,13.16h-5.09l2.544,4.408h0.001
			h20.287L73.949,31.729z"/>
		<path id="path4559" inkscape:connector-curvature="0" fill="#621E4B" d="M48.572,31.729L38.428,49.297h20.288L48.572,31.729z"/>
		<path id="path4561" inkscape:connector-curvature="0" fill="#892A69" d="M25.739,27.32l12.688,21.977l10.144-17.57l-2.544-4.407
			H43.77c-0.472,1.094-1.351,1.922-2.581,2.401l3.22,4.6h-2.801l-2.859-4.1c-0.18,0.02-0.36,0.02-0.541,0.02h-3.16v4.08h-2.6v-7.001
			L25.739,27.32z M35.048,27.32v0.78h3.04c1.169,0,2.045-0.276,2.625-0.78H35.048z"/>
		<path id="path4563" inkscape:connector-curvature="0" fill="#B03686" d="M38.427,5.342L25.739,27.32h6.709v-6.999h5.76
			c3.68,0,5.96,1.879,5.96,4.979c0,0.748-0.141,1.423-0.398,2.021h2.257l2.544-4.408L38.427,5.342z M35.048,22.519v4.801h5.665
			c0.551-0.479,0.835-1.163,0.835-2.021c0-1.76-1.18-2.78-3.46-2.78H35.048z"/>
		<path id="path4565" inkscape:connector-curvature="0" fill="#C94FA0" d="M38.429,5.343l10.143,17.569l7.6-13.162h5.089
			l-2.544-4.407H38.429z"/>
	</g>
</g>
<g id="layer2" sodipodi:insensitive="true" inkscape:groupmode="layer" inkscape:label="Prefix_as_path">
	<g id="text5346">
		<path id="path4534" inkscape:connector-curvature="0" fill="#621E4B" d="M19.085,5.342v4.425c-0.616-0.952-1.624-1.456-2.8-1.456
			c-2.1,0-3.668,1.512-3.668,3.737c0,2.227,1.568,3.752,3.668,3.752c1.218,0,2.24-0.531,2.842-1.525v1.456h0.952V5.342H19.085z
			 M16.37,14.918c-1.568,0-2.744-1.147-2.744-2.87c0-1.722,1.176-2.869,2.744-2.869c1.554,0,2.73,1.147,2.73,2.869
			C19.1,13.771,17.924,14.918,16.37,14.918z"/>
		<path id="path4536" inkscape:connector-curvature="0" fill="#621E4B" d="M29.274,12.048c0-2.212-1.498-3.737-3.57-3.737
			c-2.072,0-3.598,1.554-3.598,3.737c0,2.185,1.568,3.752,3.864,3.752c1.162,0,2.184-0.42,2.842-1.203l-0.56-0.645
			c-0.56,0.645-1.358,0.966-2.254,0.966c-1.61,0-2.786-1.021-2.898-2.562h6.16C29.26,12.245,29.274,12.132,29.274,12.048z
			 M25.704,9.165c1.442,0,2.492,1.008,2.618,2.45H23.1C23.226,10.172,24.276,9.165,25.704,9.165z"/>
	</g>
</g>
<text transform="matrix(1 0 0 1 115.7734 21.9126)" font-family="'Montserrat-Light'" font-size="20">CHAPTER</text>
<text transform="matrix(1 0 0 1 115.7734 46.5801)" font-family="'Montserrat-Light'" font-size="20">AACHEN</text>
</svg>
