<?xml version="1.0" encoding="utf-8"?>
<!-- Generator: Adobe Illustrator 15.1.0, SVG Export Plug-In . SVG Version: 6.00 Build 0)  -->
<!DOCTYPE svg PUBLIC "-//W3C//DTD SVG 1.1//EN" "http://www.w3.org/Graphics/SVG/1.1/DTD/svg11.dtd">
<svg version="1.1"
	 id="svg4769" inkscape:export-ydpi="97.790001" inkscape:export-xdpi="97.790001" inkscape:version="0.92.4 (5da689c313, 2019-01-14)" sodipodi:docname="de-RSE-chapters-logo.svg" xmlns:dc="http://purl.org/dc/elements/1.1/" xmlns:cc="http://creativecommons.org/ns#" xmlns:rdf="http://www.w3.org/1999/02/22-rdf-syntax-ns#" xmlns:svg="http://www.w3.org/2000/svg" xmlns:sodipodi="http://sodipodi.sourceforge.net/DTD/sodipodi-0.dtd" xmlns:inkscape="http://www.inkscape.org/namespaces/inkscape" inkscape:export-filename="/home/daniel/git/de-rse/chapter/assets/img/site/de-RSE-chapters-logo.png"
	 xmlns="http://www.w3.org/2000/svg" xmlns:xlink="http://www.w3.org/1999/xlink" x="0px" y="0px" width="90.708px"
	 height="56.693px" viewBox="28.347 0 90.708 56.693" enable-background="new 28.347 0 90.708 56.693" xml:space="preserve">
<text transform="matrix(1 0 0 1 32.3467 16.8269)" fill="#621E4B" font-family="'Montserrat-Regular'" font-size="14">ac</text>
<sodipodi:namedview  id="namedview27" inkscape:current-layer="text4513-3-7" inkscape:window-y="409" inkscape:window-x="1920" inkscape:window-height="1043" inkscape:window-width="1920" inkscape:pageshadow="2" inkscape:pageopacity="0" inkscape:cy="50.100809" inkscape:cx="92.091128" inkscape:zoom="5.6568543" showgrid="false" guidetolerance="10" gridtolerance="10" objecttolerance="10" borderopacity="1" bordercolor="#666666" pagecolor="#ffffff" inkscape:window-maximized="1">
	</sodipodi:namedview>
<g id="layer3" sodipodi:insensitive="true" inkscape:groupmode="layer" inkscape:label="Logo">
	<g id="g4553">
		<path id="path4669" inkscape:connector-curvature="0" fill="#C94FA0" d="M93.011,32.755l-7.599,13.161h-5.091l2.545,4.408h0.002
			h20.286L93.011,32.755z"/>
		<path id="path4663" inkscape:connector-curvature="0" fill="#B03686" d="M57.489,6.369L44.801,28.346h6.709v-6.999h5.76
			c3.68,0,5.96,1.879,5.96,4.979c0,0.748-0.141,1.423-0.398,2.021h2.257l2.544-4.408L57.489,6.369z M54.11,23.546v4.801h5.665
			c0.551-0.479,0.835-1.163,0.835-2.021c0-1.76-1.18-2.78-3.46-2.78H54.11z"/>
		<path id="path4665" inkscape:connector-curvature="0" fill="#621E4B" d="M67.634,32.755L57.49,50.324h20.288L67.634,32.755z"/>
		<path id="path4671" inkscape:connector-curvature="0" fill="#C94FA0" d="M57.491,6.37l10.143,17.569l7.6-13.162h5.088L77.778,6.37
			H57.491z"/>
		<path id="path4673" inkscape:connector-curvature="0" fill="#892A69" d="M44.801,28.346l12.688,21.977l10.144-17.569l-2.544-4.407
			h-2.257c-0.472,1.095-1.351,1.922-2.581,2.4l3.22,4.6h-2.801l-2.859-4.1c-0.18,0.02-0.36,0.02-0.541,0.02h-3.16v4.08h-2.6v-7.001
			L44.801,28.346z M54.11,28.346v0.78h3.04c1.169,0,2.045-0.276,2.625-0.78H54.11z"/>
		<path id="path4667" inkscape:connector-curvature="0" fill="#892A69" d="M103.154,6.369L93.01,23.938l2.546,4.408h2.348v-6.999
			h10.219v2.18h-7.619v3.64h6.76v1.18h8.58L103.154,6.369z"/>
		<path id="path4675" inkscape:connector-curvature="0" fill="#B03686" d="M95.556,28.346l-2.546,4.407l10.144,17.569l12.689-21.977
			h-8.58v0.961h-6.76v3.859h7.9v2.18h-10.5v-7H95.556z"/>
		<path id="path5607" inkscape:connector-curvature="0" fill="#621E4B" d="M82.869,6.37l10.143,17.569L103.155,6.37H82.869z"/>
		<g id="text5362">
			<path id="path4540" inkscape:connector-curvature="0" fill="#621E4B" d="M80.312,35.467c3.58,0,5.221-1.76,5.221-3.82
				c0-5.1-8.621-2.779-8.621-6.62c0-1.399,1.141-2.54,3.701-2.54c1.239,0,2.639,0.381,3.84,1.16l0.5-1.18
				c-1.121-0.78-2.761-1.24-4.34-1.24c-3.561,0-5.16,1.78-5.16,3.84c0,5.181,8.619,2.82,8.619,6.66c0,1.38-1.14,2.48-3.76,2.48
				c-1.84,0-3.62-0.721-4.62-1.7l-0.579,1.14C76.152,34.726,78.212,35.467,80.312,35.467z"/>
		</g>
		<path id="path4551" inkscape:connector-curvature="0" fill="#621E4B" d="M82.869,6.37l10.143,17.569L103.155,6.37H82.869z"/>
		<path id="path4553" inkscape:connector-curvature="0" fill="#892A69" d="M103.154,6.369L93.01,23.938l2.546,4.408h2.348v-6.999
			h10.219v2.18h-7.619v3.64h6.76v1.18h8.58L103.154,6.369z"/>
		<path id="path4555" inkscape:connector-curvature="0" fill="#B03686" d="M95.556,28.346l-2.546,4.407l10.144,17.569l12.689-21.977
			h-8.58v0.961h-6.76v3.859h7.9v2.18h-10.5v-7H95.556z"/>
		<path id="path4557" inkscape:connector-curvature="0" fill="#C94FA0" d="M93.011,32.755l-7.599,13.161h-5.091l2.545,4.408h0.002
			h20.286L93.011,32.755z"/>
		<path id="path4559" inkscape:connector-curvature="0" fill="#621E4B" d="M67.634,32.755L57.49,50.324h20.288L67.634,32.755z"/>
		<path id="path4561" inkscape:connector-curvature="0" fill="#892A69" d="M44.801,28.346l12.688,21.977l10.144-17.569l-2.544-4.407
			h-2.257c-0.472,1.095-1.351,1.922-2.581,2.4l3.22,4.6h-2.801l-2.859-4.1c-0.18,0.02-0.36,0.02-0.541,0.02h-3.16v4.08h-2.6v-7.001
			L44.801,28.346z M54.11,28.346v0.78h3.04c1.169,0,2.045-0.276,2.625-0.78H54.11z"/>
		<path id="path4563" inkscape:connector-curvature="0" fill="#B03686" d="M57.489,6.369L44.801,28.346h6.709v-6.999h5.76
			c3.68,0,5.96,1.879,5.96,4.979c0,0.748-0.141,1.423-0.398,2.021h2.257l2.544-4.408L57.489,6.369z M54.11,23.546v4.801h5.665
			c0.551-0.479,0.835-1.163,0.835-2.021c0-1.76-1.18-2.78-3.46-2.78H54.11z"/>
		<path id="path4565" inkscape:connector-curvature="0" fill="#C94FA0" d="M57.491,6.37l10.143,17.569l7.6-13.162h5.088L77.778,6.37
			H57.491z"/>
	</g>
</g>
<g id="layer1" sodipodi:insensitive="true" inkscape:groupmode="layer" inkscape:label="Prefix_editable" display="none">
	
		<text transform="matrix(1 0 0 1 8.0576 16.7585)" display="inline" fill="#00FF00" font-family="'Montserrat-Regular'" font-size="14">de</text>
</g>
<g id="layer5" sodipodi:insensitive="true" inkscape:groupmode="layer" inkscape:label="Postfix_editable" display="none">
	
		<text transform="matrix(1 0 0 1 88.1938 50.323)" display="inline" fill="#00FF00" font-family="'Montserrat-Regular'" font-size="14">chapter</text>
</g>
<g id="layer4" sodipodi:insensitive="true" inkscape:groupmode="layer" inkscape:label="Helper_lines_alignment" display="none">
	
		<path id="path5228" inkscape:connector-curvature="0" display="inline" fill="#404040" stroke="#FF0000" stroke-width="0.2646" stroke-linejoin="round" stroke-opacity="0.9412" d="
		M21.833,28.346V6.158"/>
	
		<path id="path5230" inkscape:connector-curvature="0" display="inline" fill="#404040" stroke="#FF0000" stroke-width="0.2646" stroke-linejoin="round" stroke-opacity="0.9412" d="
		M34.522,6.369H3.905"/>
</g>
</svg>
